<svg xmlns="http://www.w3.org/2000/svg" xmlns:xlink="http://www.w3.org/1999/xlink" width="32" height="32" viewBox="0 0 32 32"><defs><path id="hkkna" d="M697.12 3378.98a14.57 14.57 0 1 0 4.24 10.28c0-3.86-1.53-7.56-4.26-10.3zm-10.3-5.5a15.8 15.8 0 1 1 .02 31.58 15.8 15.8 0 0 1-.02-31.58z"/><path id="hkknb" d="M688.01 3386.03v-1.3a.68.68 0 0 1 .72-.76h1.82v-2.76h-2.51c-2.77 0-3.4 2.04-3.4 3.37v1.45h-1.6v3.23h1.64v8.06h3.21v-8.06h2.39l.1-1.28.2-1.95z"/></defs><g><g opacity=".27" transform="translate(-671 -3373)"><g opacity=".27"><use fill="#262626" xlink:href="#hkkna"/></g><g opacity=".27"><use fill="#262626" xlink:href="#hkknb"/></g></g></g></svg>