<svg xmlns="http://www.w3.org/2000/svg" xmlns:xlink="http://www.w3.org/1999/xlink" width="32" height="32" viewBox="0 0 32 32"><defs><path id="hnvga" d="M697.33 3420.98a14.58 14.58 0 1 0-20.64 20.58 14.58 14.58 0 0 0 20.63-20.6zm-10.3-5.5a15.8 15.8 0 1 1 .02 31.59 15.8 15.8 0 0 1-.02-31.6z"/><path id="hnvgb" d="M690.54 3431.26a3.5 3.5 0 1 0-7.02 0 3.5 3.5 0 0 0 7.02 0zm1.5-5.8a.82.82 0 1 0 0 1.65.82.82 0 0 0 0-1.65zm-9.19-1.18h8.36a2.8 2.8 0 0 1 2.8 2.8v8.36a2.8 2.8 0 0 1-2.8 2.8h-8.36a2.8 2.8 0 0 1-2.8-2.8v-8.35a2.8 2.8 0 0 1 2.8-2.8zm8.36-.93h-8.36a3.75 3.75 0 0 0-3.74 3.74v8.35a3.76 3.76 0 0 0 3.74 3.74h8.36a3.75 3.75 0 0 0 3.74-3.74v-8.35a3.74 3.74 0 0 0-3.74-3.74z"/></defs><g><g opacity=".27" transform="translate(-671 -3415)"><g opacity=".27"><use fill="#262626" xlink:href="#hnvga"/></g><g opacity=".27"><use fill="#262626" xlink:href="#hnvgb"/></g></g></g></svg>