<svg xmlns="http://www.w3.org/2000/svg" xmlns:xlink="http://www.w3.org/1999/xlink" width="33" height="32" viewBox="0 0 33 32"><defs><path id="owi1a" d="M697.76 3462.97a14.56 14.56 0 1 0-20.58 20.6 14.56 14.56 0 0 0 20.58-20.6zm-10.3-5.5a15.79 15.79 0 1 1 .01 31.58 15.79 15.79 0 0 1 0-31.57z"/><path id="owi1b" d="M695.53 3468.34c-.61.26-1.26.44-1.92.52.7-.4 1.24-1.05 1.5-1.82a6.7 6.7 0 0 1-2.11.8 3.28 3.28 0 0 0-5.63 2.96 9.38 9.38 0 0 1-6.82-3.4 3.22 3.22 0 0 0 1.01 4.34 3.21 3.21 0 0 1-1.5-.4v.05a3.3 3.3 0 0 0 2.66 3.18 3.34 3.34 0 0 1-1.5.05 3.33 3.33 0 0 0 3.1 2.27 6.7 6.7 0 0 1-4.9 1.35 9.54 9.54 0 0 0 5.07 1.46 9.2 9.2 0 0 0 9.4-9.26v-.41a6.82 6.82 0 0 0 1.65-1.69z"/></defs><g><g opacity=".27" transform="translate(-671 -3457)"><g opacity=".27"><use fill="#262626" xlink:href="#owi1a"/></g><g opacity=".27"><use fill="#262626" xlink:href="#owi1b"/></g></g></g></svg>