<svg xmlns="http://www.w3.org/2000/svg" xmlns:xlink="http://www.w3.org/1999/xlink" width="32" height="32" viewBox="0 0 32 32"><defs><path id="w0csa" d="M697.53 3336.98a14.55 14.55 0 1 0-20.57 20.61 14.55 14.55 0 0 0 20.58-20.62zm-10.29-5.5a15.8 15.8 0 1 1 .01 31.58 15.8 15.8 0 0 1 0-31.58z"/><path id="w0csb" d="M695.98 3342.86c-.24-.17-1.08-.17-1.91-.17-.64-.02-1.28.01-1.92.1-.18.06-.59 1.06-1.12 2.08-.62 1.16-1.36 2.27-1.83 2.26-.62 0-.47-1.91-.43-3.3 0-.92-.14-1.22-.27-1.3a5.1 5.1 0 0 0-1.21-.45s-2.68-.2-3.06.96c.52.07 1.4-.09 1.05 3.49-.02.17-.4 1.64-1.65-.34-.32-.5-1.5-3.48-1.91-3.51-1.38-.03-2.74-.09-3.21.18-.47.26.6 2.3 2.35 5.05 1.43 2.25 2.94 4 5.56 4.44.5.05 1.77.1 2.19-.09.27-.13-.07-2.07.86-2.26.41-.08 2.01 2.03 2.61 2.26.65.18 1.33.23 2 .18.89-.03 1.91.08 2-.53.22-1.33-2.7-3.08-2.78-3.9-.07-.6 1.07-1.7 1.64-2.53.72-1.02 1.51-2.24 1.06-2.62z"/></defs><g><g opacity=".25" transform="translate(-671 -3331)"><g opacity=".25"><use fill="#262626" xlink:href="#w0csa"/></g><g opacity=".25"><use fill="#262626" xlink:href="#w0csb"/></g></g></g></svg>